<?xml version="1.0" encoding="utf-8"?>
<!-- Generator: Adobe Illustrator 23.0.3, SVG Export Plug-In . SVG Version: 6.00 Build 0)  -->
<svg version="1.1" baseProfile="tiny" id="Camada_1"
	 xmlns="http://www.w3.org/2000/svg" xmlns:xlink="http://www.w3.org/1999/xlink" x="0px" y="0px" viewBox="0 0 300 300"
	 xml:space="preserve">
<path fill="#1E1E1C" d="M148.99,96.66h-2.49c0-6.88,5.6-12.49,12.49-12.49h44.9c5.51,0,10-4.49,10-10c0-5.52-4.49-10-10-10h-44.9
	c-6.88,0-12.49-5.6-12.49-12.48h2.49c0,5.51,4.49,10,10,10h44.9c6.88,0,12.49,5.6,12.49,12.49s-5.6,12.48-12.49,12.48h-44.9
	C153.47,86.65,148.99,91.14,148.99,96.66z"/>
<path fill="#1E1E1C" d="M148.99,141.62h-2.49c0-5.51-4.49-10-10-10h-26.66c-6.88,0-12.49-5.6-12.49-12.49
	c0-6.88,5.6-12.48,12.49-12.48h26.66c5.51,0,10-4.49,10-10h2.49c0,6.88-5.6,12.49-12.49,12.49h-26.66c-5.51,0-10,4.48-10,10
	c0,5.52,4.49,10,10,10h26.66C143.38,129.14,148.99,134.74,148.99,141.62z"/>
<path fill="#1E1E1C" d="M90.79,234.16c-5.84,0-10.59-4.75-10.59-10.59v-10.01c0-0.84-0.68-1.53-1.53-1.53H68.66
	c-5.84,0-10.59-4.75-10.59-10.59s4.75-10.59,10.59-10.59h10.01c0.84,0,1.53-0.68,1.53-1.52v-10.01c0-5.84,4.75-10.6,10.59-10.6
	c5.84,0,10.6,4.75,10.6,10.6v10.01c0,0.84,0.68,1.52,1.52,1.52h10.01c5.84,0,10.59,4.75,10.59,10.59s-4.75,10.59-10.59,10.59h-10.01
	c-0.84,0-1.52,0.69-1.52,1.53v10.01C101.39,229.4,96.63,234.16,90.79,234.16z M68.66,193.33c-4.47,0-8.11,3.64-8.11,8.11
	c0,4.47,3.64,8.11,8.11,8.11h10.01c2.21,0,4.01,1.8,4.01,4.01v10.01c0,4.47,3.64,8.11,8.11,8.11c4.47,0,8.11-3.64,8.11-8.11v-10.01
	c0-2.21,1.8-4.01,4.01-4.01h10.01c4.47,0,8.11-3.64,8.11-8.11c0-4.47-3.64-8.11-8.11-8.11h-10.01c-2.21,0-4.01-1.8-4.01-4.01v-10.01
	c0-4.47-3.64-8.11-8.11-8.11c-4.47,0-8.11,3.64-8.11,8.11v10.01c0,2.21-1.8,4.01-4.01,4.01H68.66z"/>
<path fill="#1E1E1C" d="M209.44,189.68c-5.78,0-10.48-4.7-10.48-10.48s4.7-10.48,10.48-10.48c5.78,0,10.49,4.7,10.49,10.48
	S215.22,189.68,209.44,189.68z M209.44,171.2c-4.41,0-8,3.59-8,8s3.59,8,8,8c4.41,0,8-3.59,8-8S213.85,171.2,209.44,171.2z"/>
<path fill="#1E1E1C" d="M209.44,234.16c-5.78,0-10.48-4.7-10.48-10.48c0-5.78,4.7-10.48,10.48-10.48c5.78,0,10.49,4.7,10.49,10.48
	C219.92,229.45,215.22,234.16,209.44,234.16z M209.44,215.67c-4.41,0-8,3.59-8,8s3.59,8,8,8c4.41,0,8-3.59,8-8
	S213.85,215.67,209.44,215.67z"/>
<path fill="#1E1E1C" d="M231.68,211.92c-5.78,0-10.49-4.7-10.49-10.48c0-5.78,4.7-10.48,10.49-10.48c5.78,0,10.48,4.7,10.48,10.48
	C242.16,207.22,237.46,211.92,231.68,211.92z M231.68,193.43c-4.41,0-8,3.59-8,8c0,4.41,3.59,8,8,8c4.41,0,8-3.59,8-8
	C239.67,197.02,236.09,193.43,231.68,193.43z"/>
<path fill="#1E1E1C" d="M187.2,211.92c-5.78,0-10.49-4.7-10.49-10.48c0-5.78,4.7-10.48,10.49-10.48c5.78,0,10.48,4.7,10.48,10.48
	C197.69,207.22,192.98,211.92,187.2,211.92z M187.2,193.43c-4.41,0-8,3.59-8,8c0,4.41,3.59,8,8,8c4.41,0,8-3.59,8-8
	C195.2,197.02,191.61,193.43,187.2,193.43z"/>
<polygon fill="#1E1E1C" points="148.99,157.03 90.79,157.03 90.79,154.55 146.5,154.55 146.5,51.68 148.99,51.68 "/>
<path fill="#1E1E1C" d="M209.21,248.32c-18.49,0-34.13-9.62-41.86-25.74c-3.11-6.54-10.28-11.11-17.42-11.11
	c-7.46,0-13.64,4.06-17.43,11.43c-8.11,15.7-24.08,25.42-41.7,25.42c-25.85,0-46.89-21.03-46.89-46.88
	c0-25.85,21.03-46.89,46.89-46.89v2.48c-24.48,0-44.4,19.92-44.4,44.4c0,24.48,19.92,44.4,44.4,44.4c16.69,0,31.81-9.22,39.47-24.05
	c4.19-8.15,11.35-12.81,19.66-12.81c8.07,0,16.16,5.15,19.67,12.53c7.3,15.23,22.11,24.33,39.62,24.33c24.48,0,44.4-19.92,44.4-44.4
	c0-24.48-19.92-44.4-44.4-44.4v-2.48c25.85,0,46.89,21.03,46.89,46.89C256.1,227.29,235.06,248.32,209.21,248.32z"/>
</svg>
